<svg width="40" height="40" viewBox="0 0 40 40" fill="none" xmlns="http://www.w3.org/2000/svg">
<path d="M36.6163 30.5487C36.6163 31.1487 36.483 31.7654 36.1997 32.3654C35.9163 32.9654 35.5497 33.532 35.0663 34.0654C34.2497 34.9654 33.3497 35.6154 32.333 36.032C31.333 36.4487 30.2497 36.6654 29.083 36.6654C27.383 36.6654 25.5663 36.2654 23.6497 35.4487C21.733 34.632 19.8163 33.532 17.9163 32.1487C15.9997 30.7487 14.183 29.1987 12.4497 27.482C10.733 25.7487 9.18301 23.932 7.79967 22.032C6.43301 20.132 5.33301 18.232 4.53301 16.3487C3.73301 14.4487 3.33301 12.632 3.33301 10.8987C3.33301 9.76536 3.53301 8.68203 3.93301 7.68203C4.33301 6.66536 4.96634 5.73203 5.84967 4.8987C6.91634 3.8487 8.08301 3.33203 9.31634 3.33203C9.78301 3.33203 10.2497 3.43203 10.6663 3.63203C11.0997 3.83203 11.483 4.13203 11.783 4.56536L15.6497 10.0154C15.9497 10.432 16.1663 10.8154 16.3163 11.182C16.4663 11.532 16.5497 11.882 16.5497 12.1987C16.5497 12.5987 16.433 12.9987 16.1997 13.382C15.983 13.7654 15.6663 14.1654 15.2663 14.5654L13.9997 15.882C13.8163 16.0654 13.733 16.282 13.733 16.5487C13.733 16.682 13.7497 16.7987 13.783 16.932C13.833 17.0654 13.883 17.1654 13.9163 17.2654C14.2163 17.8154 14.733 18.532 15.4663 19.3987C16.2163 20.2654 17.0163 21.1487 17.883 22.032C18.783 22.9154 19.6497 23.732 20.533 24.482C21.3997 25.2154 22.1163 25.7154 22.683 26.0154C22.7663 26.0487 22.8663 26.0987 22.983 26.1487C23.1163 26.1987 23.2497 26.2154 23.3997 26.2154C23.683 26.2154 23.8997 26.1154 24.083 25.932L25.3497 24.682C25.7663 24.2654 26.1663 23.9487 26.5497 23.7487C26.933 23.5154 27.3163 23.3987 27.733 23.3987C28.0497 23.3987 28.383 23.4654 28.7497 23.6154C29.1163 23.7654 29.4997 23.982 29.9163 24.2654L35.433 28.182C35.8663 28.482 36.1663 28.832 36.3497 29.2487C36.5163 29.6654 36.6163 30.082 36.6163 30.5487Z" stroke="black" stroke-width="2.5" stroke-miterlimit="10"/>
<path opacity="0.4" d="M30.8333 15.0013C30.8333 14.0013 30.05 12.468 28.8833 11.218C27.8167 10.068 26.4 9.16797 25 9.16797" stroke="black" stroke-width="2.5" stroke-linecap="round" stroke-linejoin="round"/>
<path opacity="0.4" d="M36.6667 14.9987C36.6667 8.5487 31.45 3.33203 25 3.33203" stroke="black" stroke-width="2.5" stroke-linecap="round" stroke-linejoin="round"/>
</svg>
