<svg width="284" height="124" viewBox="0 0 284 124" fill="none" xmlns="http://www.w3.org/2000/svg">
<path d="M4.37356 74.6222C1.95811 52.9185 17.5943 33.3661 39.2979 30.9507L214.458 11.4567C236.162 9.04126 255.714 24.6774 258.129 46.3811C260.545 68.0848 244.909 87.6372 223.205 90.0526L48.045 109.547C26.3414 111.962 6.789 96.3258 4.37356 74.6222Z" fill="#82A98E"/>
<path d="M222.873 87.0709L223.205 90.0525L48.0455 109.546L47.7137 106.565L222.873 87.0709ZM255.148 46.7134C252.915 26.6565 234.847 12.2062 214.79 14.4383L39.6302 33.9322C19.5733 36.1644 5.12301 54.2338 7.3552 74.2908C9.5876 94.3475 27.6569 108.797 47.7137 106.565L48.0455 109.546L47.0289 109.647C26.0724 111.443 7.35448 96.474 4.4991 75.6355L4.37361 74.6226C1.99592 53.2582 17.1098 33.9777 38.2846 31.0762L39.2984 30.9506L214.458 11.4567L215.474 11.3564C236.769 9.53123 255.751 25.0171 258.129 46.3816L258.229 47.3972C260.026 68.3537 245.057 87.0717 224.218 89.927L223.205 90.0525L222.873 87.0709C242.93 84.8386 257.38 66.7701 255.148 46.7134Z" fill="white"/>
<path d="M232.173 81.8763C230.671 68.3791 240.395 56.2198 253.892 54.7177C267.389 53.2155 279.548 62.9394 281.051 76.4366C282.553 89.9337 272.829 102.093 259.332 103.595C245.834 105.097 233.675 95.3734 232.173 81.8763Z" fill="#DEBEB0"/>
<path d="M278.069 76.7686C276.75 64.9181 266.074 56.3805 254.224 57.6992C242.373 59.0181 233.836 69.6942 235.155 81.5446C236.474 93.395 247.15 101.933 259 100.614L259.332 103.596L258.7 103.657C245.667 104.774 234.027 95.4657 232.251 82.5065L232.173 81.8765C230.671 68.3793 240.395 56.2198 253.892 54.7176L254.524 54.6552C267.767 53.5202 279.572 63.1505 281.051 76.4367L281.112 77.0686C282.247 90.3113 272.618 102.117 259.332 103.596L259 100.614C270.85 99.295 279.388 88.6189 278.069 76.7686Z" fill="white"/>
<path d="M51.199 108.18C50.2348 99.5158 56.4767 91.7105 65.1407 90.7463C73.8047 89.782 81.61 96.0239 82.5742 104.688C83.5384 113.352 77.2965 121.157 68.6325 122.121C59.9685 123.086 52.1633 116.844 51.199 108.18Z" fill="#5B7663"/>
<path d="M79.593 105.019C78.8119 98.0023 72.4895 92.9469 65.4723 93.7279C58.4552 94.509 53.3998 100.831 54.1806 107.848C54.9616 114.865 61.2833 119.921 68.3005 119.14L68.6323 122.122L68.2269 122.161C59.7262 122.89 52.1482 116.708 51.199 108.18C50.2349 99.5157 56.4767 91.7107 65.1405 90.7463C73.8044 89.7821 81.6103 96.0238 82.5746 104.688L82.6138 105.093C83.3427 113.594 77.1611 121.173 68.6323 122.122L68.3005 119.14C75.3178 118.359 80.374 112.037 79.593 105.019Z" fill="white"/>
<path d="M162.199 19.1798C161.235 10.5158 167.477 2.71052 176.141 1.74628V1.74628C184.805 0.782043 192.61 7.02394 193.574 15.688V15.688C194.538 24.352 188.297 32.1572 179.633 33.1215V33.1215C170.969 34.0857 163.163 27.8438 162.199 19.1798V19.1798Z" fill="#5B7663"/>
<path d="M190.593 16.0195C189.812 9.00228 183.49 3.94694 176.472 4.7279C169.455 5.50899 164.4 11.8305 165.181 18.8477C165.962 25.8649 172.283 30.9212 179.3 30.1403L179.632 33.1219L179.227 33.1612C170.726 33.8898 163.148 27.7081 162.199 19.1795C161.235 10.5157 167.477 2.71067 176.14 1.74631C184.804 0.782081 192.61 7.02377 193.575 15.6877L193.614 16.093C194.343 24.594 188.161 32.1727 179.632 33.1219L179.3 30.1403C186.318 29.3594 191.374 23.0368 190.593 16.0195Z" fill="white"/>
<path d="M14.173 41.8763C12.6708 28.3791 22.3947 16.2198 35.8919 14.7177C49.3891 13.2155 61.5484 22.9394 63.0505 36.4366C64.5527 49.9337 54.8288 62.0931 41.3316 63.5952C27.8344 65.0973 15.6751 55.3734 14.173 41.8763Z" fill="#DEBEB0"/>
<path d="M60.0693 36.7686C58.7505 24.9181 48.0743 16.3805 36.2239 17.6992C24.3734 19.0181 15.8357 29.6942 17.1546 41.5446C18.4735 53.395 29.1496 61.9328 41 60.614L41.3318 63.5956L40.7 63.657C27.6674 64.7742 16.0267 55.4657 14.251 42.5065L14.173 41.8765C12.6709 28.3793 22.3949 16.2198 35.8921 14.7176L36.5238 14.6552C49.7666 13.5202 61.5723 23.1505 63.0509 36.4367L63.1124 37.0686C64.2473 50.3113 54.6179 62.1168 41.3318 63.5956L41 60.614C52.8503 59.295 61.3881 48.6189 60.0693 36.7686Z" fill="white"/>
</svg>
