<svg width="40" height="40" viewBox="0 0 40 40" fill="none" xmlns="http://www.w3.org/2000/svg">
<path opacity="0.4" d="M29.9959 11.932C29.8959 11.9154 29.7792 11.9154 29.6792 11.932C27.3792 11.8487 25.5459 9.96537 25.5459 7.63203C25.5459 5.2487 27.4626 3.33203 29.8459 3.33203C32.2292 3.33203 34.1459 5.26537 34.1459 7.63203C34.1292 9.96537 32.2959 11.8487 29.9959 11.932Z" stroke="#292D32" stroke-width="2.5" stroke-linecap="round" stroke-linejoin="round"/>
<path opacity="0.4" d="M28.2795 24.0656C30.5628 24.449 33.0795 24.049 34.8462 22.8656C37.1962 21.299 37.1962 18.7323 34.8462 17.1656C33.0628 15.9823 30.5128 15.5823 28.2295 15.9823" stroke="#292D32" stroke-width="2.5" stroke-linecap="round" stroke-linejoin="round"/>
<path opacity="0.4" d="M9.9459 11.932C10.0459 11.9154 10.1626 11.9154 10.2626 11.932C12.5626 11.8487 14.3959 9.96537 14.3959 7.63203C14.3959 5.2487 12.4792 3.33203 10.0959 3.33203C7.71257 3.33203 5.7959 5.26537 5.7959 7.63203C5.81257 9.96537 7.6459 11.8487 9.9459 11.932Z" stroke="#292D32" stroke-width="2.5" stroke-linecap="round" stroke-linejoin="round"/>
<path opacity="0.4" d="M11.6622 24.0656C9.37884 24.449 6.86217 24.049 5.09551 22.8656C2.74551 21.299 2.74551 18.7323 5.09551 17.1656C6.87884 15.9823 9.42884 15.5823 11.7122 15.9823" stroke="#292D32" stroke-width="2.5" stroke-linecap="round" stroke-linejoin="round"/>
<path d="M19.9998 24.3852C19.8998 24.3685 19.7831 24.3685 19.6831 24.3852C17.3831 24.3018 15.5498 22.4185 15.5498 20.0852C15.5498 17.7018 17.4665 15.7852 19.8498 15.7852C22.2331 15.7852 24.1498 17.7185 24.1498 20.0852C24.1331 22.4185 22.2998 24.3185 19.9998 24.3852Z" stroke="#292D32" stroke-width="2.5" stroke-linecap="round" stroke-linejoin="round"/>
<path d="M15.1502 29.6336C12.8002 31.2003 12.8002 33.7669 15.1502 35.3336C17.8169 37.1169 22.1835 37.1169 24.8502 35.3336C27.2002 33.7669 27.2002 31.2003 24.8502 29.6336C22.2002 27.8669 17.8169 27.8669 15.1502 29.6336Z" stroke="#292D32" stroke-width="2.5" stroke-linecap="round" stroke-linejoin="round"/>
</svg>
