<svg width="40" height="40" viewBox="0 0 40 40" fill="none" xmlns="http://www.w3.org/2000/svg">
<path d="M33.1663 22.5H6.83301C4.33301 22.5 3.33301 23.5667 3.33301 26.2167V32.95C3.33301 35.6 4.33301 36.6667 6.83301 36.6667H33.1663C35.6663 36.6667 36.6663 35.6 36.6663 32.95V26.2167C36.6663 23.5667 35.6663 22.5 33.1663 22.5Z" stroke="#292D32" stroke-width="2.5" stroke-linecap="round" stroke-linejoin="round"/>
<path opacity="0.4" d="M33.1663 3.33203H6.83301C4.33301 3.33203 3.33301 4.3987 3.33301 7.0487V13.782C3.33301 16.432 4.33301 17.4987 6.83301 17.4987H33.1663C35.6663 17.4987 36.6663 16.432 36.6663 13.782V7.0487C36.6663 4.3987 35.6663 3.33203 33.1663 3.33203Z" stroke="#292D32" stroke-width="2.5" stroke-linecap="round" stroke-linejoin="round"/>
</svg>
