<svg width="300" height="152" viewBox="0 0 300 152" fill="none" xmlns="http://www.w3.org/2000/svg">
<g filter="url(#filter0_i_2100_25442)">
<rect width="286.437" height="108" rx="54" transform="matrix(-0.987688 0.156434 0.156434 0.987688 282.911 0)" fill="#C9DFE8"/>
<rect x="-1.24688" y="1.71618" width="283.437" height="105" rx="52.5" transform="matrix(-0.987688 0.156434 0.156434 0.987688 280.164 0.216184)" stroke="#82B5CA" stroke-width="3"/>
<path opacity="0.7" d="M203.02 72.7685C203.209 75.4659 204.138 77.5729 205.808 79.0894C207.478 80.606 209.438 81.5462 211.687 81.9102L211.919 85.2301C212.004 86.4405 212.184 87.2793 212.46 87.7465C212.702 88.2161 213.053 88.5217 213.515 88.6632C213.942 88.807 214.519 88.8536 215.245 88.8028C215.971 88.752 216.553 88.6245 216.99 88.4201C217.393 88.2182 217.665 87.8864 217.807 87.4247C218.008 86.8199 218.067 85.9296 217.985 84.7538L217.76 81.5377C219.156 81.1273 220.399 80.5191 221.49 79.713C222.58 78.907 223.331 78.2116 223.742 77.6269L224.355 76.6979C225.015 75.7134 225.322 74.8753 225.273 74.1836C225.225 73.492 224.573 72.6167 223.317 71.5577C222.58 70.949 221.831 70.6712 221.07 70.7244C220.274 70.7801 219.233 71.5479 217.947 73.0279C216.967 74.417 215.802 75.1587 214.454 75.253C211.895 75.4319 210.541 74.4667 210.394 72.3571C210.341 71.5963 210.784 70.9746 211.723 70.4919C212.662 70.0092 213.813 69.5639 215.174 69.1559C216.533 68.7133 217.885 68.167 219.23 67.517C220.574 66.8669 221.684 65.8337 222.558 64.4173C223.431 63.0009 223.796 61.2552 223.651 59.1803C223.506 57.1053 222.718 55.2838 221.288 53.7158C219.858 52.1477 217.967 51.2026 215.616 50.8805L215.413 47.9756C215.331 46.7998 215.168 45.9598 214.924 45.4556C214.52 44.6498 213.575 44.2989 212.088 44.4029C211.154 44.4682 210.477 44.724 210.056 45.1704C209.599 45.5847 209.351 46.019 209.314 46.4734C209.276 46.9278 209.287 47.5873 209.348 48.4519L209.551 51.3568C208.597 51.632 207.736 51.9876 206.967 52.4236C206.198 52.8597 205.667 53.2096 205.372 53.4734L204.934 53.9211L204.738 54.0912C203.929 54.947 203.543 55.6343 203.579 56.1531C203.615 56.6718 204.09 57.5073 205.005 58.6597C205.885 59.8144 206.809 60.358 207.778 60.2902C208.4 60.2467 208.925 60.0536 209.353 59.7109C209.746 59.3707 210.057 59.0883 210.284 58.8639C210.512 58.6395 210.724 58.4509 210.922 58.298C211.484 57.8765 212.214 57.6343 213.113 57.5714C214.012 57.5086 214.771 57.6814 215.391 58.0898C216.008 58.4637 216.343 59.031 216.396 59.7918C216.449 60.5527 216.147 61.1993 215.489 61.7318C214.794 62.2322 213.934 62.6051 212.909 62.8506C211.881 63.0614 210.758 63.4006 209.539 63.8681C208.319 64.3009 207.207 64.7957 206.203 65.3524C205.199 65.9091 204.395 66.8341 203.791 68.1275C203.149 69.3886 202.892 70.9356 203.02 72.7685Z" fill="#5B7663"/>
<path d="M162.784 53.4089C162.38 52.9058 161.787 52.615 161.005 52.5363C160.178 52.4244 159.151 52.4655 157.927 52.6594C156.662 52.8597 155.677 53.1575 154.97 53.5529C154.257 53.9089 153.789 54.4082 153.567 55.0509C153.339 55.654 153.242 56.1958 153.278 56.6761C153.274 57.1627 153.344 57.8604 153.488 58.769L158.706 91.7183C158.95 93.2591 159.329 94.3736 159.843 95.0616C160.312 95.7164 160.959 96.0998 161.787 96.2117C162.575 96.3299 163.542 96.2982 164.688 96.1167C165.834 95.9353 166.727 95.6926 167.367 95.3887C168.007 95.0848 168.484 94.7664 168.795 94.4335C169.107 94.1006 169.301 93.6649 169.378 93.1263C169.509 92.4171 169.464 91.3711 169.245 89.9884L168.1 82.7585L184.16 80.2148C186.926 79.7768 188.446 78.7665 188.722 77.1839C188.82 76.5205 188.784 75.6554 188.615 74.5887C188.446 73.522 188.262 72.7412 188.062 72.2464L179.999 53.1729C179.618 52.3018 179.311 51.6417 179.078 51.1926C178.805 50.7498 178.377 50.3518 177.795 49.9986C177.173 49.6516 176.447 49.5438 175.618 49.6752C174.788 49.8066 173.901 50.0888 172.957 50.5218C170.311 51.7105 169.128 53.1937 169.41 54.9716C169.51 55.6037 169.779 56.4114 170.219 57.3948C170.271 57.4676 170.3 57.5237 170.306 57.5632L176.211 71.4504L166.552 72.9804L163.989 56.802C163.845 55.8933 163.719 55.2248 163.611 54.7965C163.463 54.3745 163.187 53.9119 162.784 53.4089ZM144.079 89.4183C143.513 90.1963 143.397 91.6322 143.728 93.7261L143.766 93.9632C143.916 94.9114 144.068 95.6163 144.222 96.0778C144.331 96.5062 144.613 97.0082 145.068 97.584C145.842 98.6359 147.434 98.971 149.844 98.5893C152.215 98.2138 153.736 97.5882 154.407 96.7124C155.039 95.8429 155.189 94.3612 154.857 92.2673L154.819 92.0302C154.676 91.1215 154.546 90.4333 154.432 89.9655C154.278 89.5039 153.996 89.0018 153.586 88.4593C152.805 87.3679 151.23 87.0099 148.859 87.3854C146.45 87.7671 144.856 88.4447 144.079 89.4183ZM126.977 57.5007L117.978 58.9866L112.408 59.8689C111.46 60.0191 110.775 60.1681 110.353 60.3159C109.924 60.4243 109.439 60.6834 108.896 61.0933C107.917 61.8154 107.634 63.4801 108.047 66.0876C108.422 68.4581 109.145 69.8219 110.214 70.1791C110.817 70.4075 111.342 70.5268 111.789 70.537C112.19 70.514 112.826 70.4336 113.695 70.2959L124.066 68.6534C124.22 69.1149 124.655 70.5849 125.372 73.0634C124.924 73.0532 124.227 73.1232 123.279 73.2734C119.525 73.8678 116.373 75.8251 113.821 79.1452C111.262 82.4258 110.309 86.1205 110.959 90.2293C111.604 94.2985 113.583 97.5894 116.897 100.102C120.205 102.575 123.972 103.477 128.199 102.807C131.874 102.225 135.045 100.771 137.714 98.4451C138.317 97.9041 138.751 97.4506 139.017 97.0844L139.426 96.5945C140.72 95.053 141.283 93.7489 141.114 92.6822C140.945 91.6155 140.011 90.4472 138.312 89.1775C136.92 88.0615 135.671 87.591 134.565 87.7662C133.459 87.9415 132.235 88.7832 130.895 90.2915C130.315 91.2338 129.156 91.8426 127.418 92.1179C125.64 92.3995 124.276 92.2307 123.328 91.6114C122.34 90.9984 121.743 90.0401 121.536 88.7363C121.323 87.3931 121.632 86.271 122.461 85.3702C123.244 84.4361 124.229 83.8752 125.414 83.6875C126.599 83.4998 127.604 83.7052 128.428 84.3037C129.638 85.0434 130.797 85.3257 131.903 85.1505C132.97 84.9815 134.155 84.4091 135.458 83.4332C136.722 82.4635 137.537 81.727 137.902 81.2236C138.262 80.6807 138.401 80.1524 138.32 79.6388C138.238 79.1252 137.339 76.0074 135.623 70.2855C133.907 64.5635 133.01 61.5871 132.933 61.3563C132.856 61.1255 132.652 60.7326 132.321 60.1775C131.99 59.6225 131.629 59.1329 131.238 58.7089C130.808 58.2911 130.228 57.9576 129.5 57.7084C128.727 57.426 127.885 57.3567 126.977 57.5007ZM99.628 67.1173C98.2258 65.679 96.413 64.5892 94.1896 63.8478C91.9205 63.0733 89.423 62.9019 86.6969 63.3336C83.9709 63.7654 81.6849 64.6742 79.839 66.06C77.9536 67.4521 76.5631 69.029 75.6677 70.7908C74.7328 72.5588 74.0787 74.5658 73.7054 76.8119C73.0834 80.5553 73.0884 84.4221 73.7203 88.4124C74.8529 95.5632 77.2917 100.989 81.0365 104.688C82.4325 106.087 84.2391 107.137 86.4562 107.839C88.6338 108.547 91.0658 108.689 93.7523 108.263C96.4388 107.838 98.7477 106.945 100.679 105.587C102.564 104.194 103.978 102.634 104.919 100.906C105.821 99.1834 106.478 97.1961 106.89 94.9438C107.498 91.3647 107.461 87.422 106.779 83.1157C106.153 79.1649 105.164 75.859 103.811 73.1979C102.418 70.543 101.024 68.5162 99.628 67.1173ZM92.2001 97.6958C88.1308 98.3403 85.483 94.7908 84.2565 87.0473L84.2002 86.6918C82.9425 78.7508 84.3285 74.4611 88.3583 73.8229C92.388 73.1846 95.0349 76.8558 96.2989 84.8363C97.5566 92.7773 96.1904 97.0638 92.2001 97.6958Z" fill="#5B7663"/>
</g>
<g filter="url(#filter1_i_2100_25442)">
<rect x="9.7998" y="6.87891" width="286.437" height="108" rx="54" transform="rotate(4 9.7998 6.87891)" fill="#82A98E"/>
<rect x="11.1915" y="8.47989" width="283.437" height="105" rx="52.5" transform="rotate(4 11.1915 8.47989)" stroke="#5B7663" stroke-width="3"/>
<path opacity="0.7" d="M95.7288 72.4088C95.776 75.1124 95.0339 77.2924 93.5026 78.9487C91.9713 80.605 90.101 81.7125 87.8917 82.2711L87.9498 85.5986C87.971 86.8117 87.8645 87.6631 87.6304 88.1526C87.4309 88.6415 87.1073 88.9765 86.6597 89.1577C86.2468 89.3382 85.6764 89.4349 84.9485 89.4476C84.2207 89.4603 83.6299 89.3839 83.1763 89.2185C82.7573 89.0524 82.4572 88.7456 82.2761 88.298C82.0232 87.713 81.8864 86.8313 81.8658 85.6528L81.8096 82.4293C80.383 82.1421 79.0915 81.6446 77.9349 80.9367C76.7784 80.2288 75.97 79.6014 75.5097 79.0547L74.8184 78.1826C74.0742 77.2595 73.696 76.4513 73.6839 75.7581C73.6718 75.0648 74.245 74.136 75.4035 72.9716C76.0853 72.301 76.8074 71.959 77.57 71.9457C78.3672 71.9318 79.4711 72.6059 80.8818 73.9682C81.9793 75.2666 83.2039 75.904 84.5557 75.8804C87.1206 75.8356 88.3847 74.756 88.3478 72.6417C88.3345 71.8791 87.8389 71.2984 86.8611 70.8994C85.8833 70.5004 84.6985 70.157 83.3066 69.8692C81.9141 69.5468 80.5198 69.1204 79.1236 68.59C77.7275 68.0597 76.5324 67.127 75.5383 65.7922C74.5442 64.4573 74.0289 62.7501 73.9926 60.6704C73.9563 58.5907 74.5822 56.7075 75.8703 55.0208C77.1584 53.334 78.9594 52.2278 81.2732 51.702L81.2224 48.7904C81.2018 47.6119 81.291 46.7609 81.4899 46.2373C81.822 45.3994 82.7333 44.9674 84.2237 44.9414C85.1596 44.9251 85.8564 45.121 86.3143 45.529C86.8062 45.9018 87.0907 46.3129 87.1679 46.7623C87.2451 47.2117 87.2913 47.8697 87.3064 48.7362L87.3572 51.6478C88.3314 51.8388 89.2204 52.118 90.0242 52.4854C90.8281 52.8527 91.3881 53.155 91.7043 53.3922L92.1795 53.7999L92.3902 53.9523C93.2707 54.7344 93.7154 55.3854 93.7245 55.9053C93.7336 56.4252 93.3328 57.299 92.5221 58.5267C91.746 59.7537 90.8727 60.3757 89.9022 60.3927C89.2783 60.4036 88.7383 60.257 88.2823 59.9529C87.8609 59.6482 87.5271 59.394 87.2808 59.1903C87.0346 58.9865 86.8063 58.8171 86.5959 58.6821C86 58.3111 85.2514 58.1335 84.3502 58.1492C83.449 58.165 82.7077 58.4033 82.1264 58.8642C81.5444 59.2904 81.26 59.8848 81.2734 60.6473C81.2867 61.4099 81.6442 62.0277 82.3459 62.5009C83.0816 62.9388 83.9709 63.2353 85.0138 63.3905C86.0561 63.511 87.2044 63.7509 88.4589 64.1104C89.7127 64.4353 90.8638 64.8312 91.9121 65.2984C92.9605 65.7655 93.8421 66.6169 94.5571 67.8526C95.3062 69.053 95.6968 70.5718 95.7288 72.4088Z" fill="#5B7663"/>
<path d="M134.125 49.6146C134.483 49.0783 135.048 48.7369 135.82 48.5904C136.635 48.4068 137.661 48.3582 138.898 48.4447C140.175 48.534 141.183 48.7448 141.921 49.0772C142.663 49.3696 143.172 49.8262 143.45 50.4471C143.73 51.0281 143.873 51.5594 143.879 52.041C143.926 52.5254 143.917 53.2265 143.853 54.1442L141.526 87.423C141.417 88.9792 141.136 90.1224 140.684 90.8526C140.275 91.5458 139.663 91.9841 138.848 92.1678C138.073 92.3542 137.107 92.4069 135.95 92.326C134.793 92.2451 133.882 92.0811 133.218 91.8342C132.553 91.5872 132.051 91.3115 131.712 91.0071C131.372 90.7027 131.141 90.2855 131.017 89.7556C130.825 89.0605 130.778 88.0147 130.876 86.6181L131.386 79.3159L115.166 78.1817C112.373 77.9864 110.77 77.1124 110.357 75.5599C110.202 74.9075 110.162 74.0426 110.238 72.9652C110.313 71.8879 110.429 71.094 110.585 70.5836L116.955 50.88C117.258 49.979 117.507 49.2946 117.7 48.8269C117.933 48.3621 118.324 47.9283 118.873 47.5256C119.463 47.1258 120.176 46.9551 121.014 47.0137C121.852 47.0723 122.76 47.2762 123.738 47.6252C126.479 48.5787 127.786 49.9533 127.66 51.7489C127.616 52.3873 127.417 53.2155 127.065 54.2334C127.02 54.3104 126.996 54.3689 126.993 54.4088L122.321 68.7578L132.077 69.4401L133.22 53.1C133.284 52.1822 133.351 51.5053 133.422 51.0691C133.532 50.6358 133.767 50.1509 134.125 49.6146ZM155.897 83.8568C156.528 84.5826 156.77 86.0029 156.622 88.1177L156.605 88.3571C156.538 89.3148 156.448 90.0302 156.335 90.5035C156.264 90.9396 156.027 91.4644 155.623 92.0777C154.944 93.193 153.387 93.6656 150.953 93.4954C148.559 93.328 146.989 92.8373 146.244 92.0233C145.539 91.2121 145.26 89.7491 145.408 87.6343L145.425 87.3949C145.489 86.4771 145.558 85.7802 145.631 85.3042C145.744 84.8309 145.982 84.3062 146.343 83.73C147.025 82.5748 148.563 82.0809 150.957 82.2483C153.391 82.4185 155.038 82.9547 155.897 83.8568ZM170.152 50.5701L179.246 51.2661L184.872 51.6595C185.83 51.7265 186.525 51.8152 186.958 51.9257C187.395 51.9963 187.901 52.2122 188.477 52.5732C189.515 53.2072 189.942 54.841 189.758 57.4746C189.591 59.8687 188.99 61.2903 187.956 61.7392C187.375 62.0194 186.863 62.184 186.418 62.2332C186.016 62.2452 185.376 62.2205 184.499 62.1591L174.024 61.4266C173.911 61.8999 173.605 63.4022 173.108 65.9337C173.552 65.8846 174.253 65.8935 175.211 65.9605C179.002 66.2255 182.313 67.9006 185.144 70.9856C187.979 74.0308 189.251 77.6283 188.961 81.7781C188.674 85.8881 186.989 89.339 183.906 92.1308C180.827 94.8827 177.152 96.1093 172.883 95.8108C169.172 95.5513 165.886 94.3792 163.024 92.2945C162.377 91.8081 161.904 91.3942 161.607 91.0526L161.158 90.6002C159.734 89.1774 159.059 87.9273 159.134 86.8499C159.21 85.7725 160.039 84.5273 161.621 83.1143C162.91 81.8812 164.113 81.3037 165.231 81.3818C166.348 81.46 167.64 82.1919 169.107 83.5776C169.767 84.4658 170.974 84.9712 172.73 85.094C174.526 85.2196 175.869 84.9326 176.76 84.233C177.691 83.5363 178.202 82.5295 178.294 81.2127C178.389 79.856 177.984 78.7651 177.08 77.94C176.218 77.0778 175.188 76.6048 173.991 76.5211C172.794 76.4374 171.811 76.7295 171.043 77.3976C169.901 78.24 168.772 78.6221 167.655 78.544C166.577 78.4687 165.347 78.0017 163.963 77.1431C162.62 76.2873 161.744 75.6246 161.336 75.155C160.93 74.6454 160.746 74.1313 160.782 73.6126C160.818 73.0938 161.442 69.9096 162.653 64.0598C163.864 58.21 164.498 55.1668 164.554 54.9302C164.611 54.6936 164.78 54.2844 165.061 53.7026C165.342 53.1208 165.659 52.6016 166.012 52.1451C166.405 51.6914 166.953 51.3087 167.656 50.997C168.402 50.6482 169.234 50.5059 170.152 50.5701ZM198.235 57.7666C199.506 56.2115 201.217 54.9678 203.368 54.0355C205.561 53.0661 208.034 52.6777 210.787 52.8702C213.54 53.0628 215.897 53.7689 217.856 54.9885C219.856 56.211 221.379 57.6607 222.424 59.3378C223.51 61.0176 224.336 62.96 224.904 65.1649C225.85 68.8399 226.182 72.6924 225.9 76.7226C225.395 83.9449 223.438 89.5621 220.03 93.5742C218.761 95.0893 217.053 96.2931 214.906 97.1855C212.798 98.0807 210.388 98.4334 207.674 98.2436C204.961 98.0539 202.583 97.3664 200.541 96.181C198.541 94.9585 196.997 93.5274 195.909 91.8874C194.861 90.2503 194.033 88.3279 193.425 86.1201C192.508 82.6076 192.202 78.6766 192.506 74.3273C192.785 70.337 193.482 66.9574 194.598 64.1885C195.754 61.4224 196.966 59.2818 198.235 57.7666ZM208.3 87.5813C212.41 87.8687 214.738 84.1019 215.285 76.281L215.31 75.9219C215.871 67.9015 214.116 63.749 210.046 63.4644C205.976 63.1798 203.659 67.0676 203.096 75.1279C202.535 83.1483 204.269 87.2995 208.3 87.5813Z" fill="#5B7663"/>
</g>
<g filter="url(#filter2_i_2100_25442)">
<rect x="5.68359" y="7.73828" width="286.437" height="108" rx="54" fill="#DEBEB0"/>
<rect x="7.18359" y="9.23828" width="283.437" height="105" rx="52.5" stroke="#B69688" stroke-width="3"/>
</g>
<defs>
<filter id="filter0_i_2100_25442" x="0.000976562" y="0" width="299.805" height="151.48" filterUnits="userSpaceOnUse" color-interpolation-filters="sRGB">
<feFlood flood-opacity="0" result="BackgroundImageFix"/>
<feBlend mode="normal" in="SourceGraphic" in2="BackgroundImageFix" result="shape"/>
<feColorMatrix in="SourceAlpha" type="matrix" values="0 0 0 0 0 0 0 0 0 0 0 0 0 0 0 0 0 0 127 0" result="hardAlpha"/>
<feOffset dy="-9"/>
<feComposite in2="hardAlpha" operator="arithmetic" k2="-1" k3="1"/>
<feColorMatrix type="matrix" values="0 0 0 0 0 0 0 0 0 0 0 0 0 0 0 0 0 0 0.25 0"/>
<feBlend mode="normal" in2="shape" result="effect1_innerShadow_2100_25442"/>
</filter>
<filter id="filter1_i_2100_25442" x="2.26562" y="6.87891" width="293.273" height="127.719" filterUnits="userSpaceOnUse" color-interpolation-filters="sRGB">
<feFlood flood-opacity="0" result="BackgroundImageFix"/>
<feBlend mode="normal" in="SourceGraphic" in2="BackgroundImageFix" result="shape"/>
<feColorMatrix in="SourceAlpha" type="matrix" values="0 0 0 0 0 0 0 0 0 0 0 0 0 0 0 0 0 0 127 0" result="hardAlpha"/>
<feOffset dy="-9"/>
<feComposite in2="hardAlpha" operator="arithmetic" k2="-1" k3="1"/>
<feColorMatrix type="matrix" values="0 0 0 0 0 0 0 0 0 0 0 0 0 0 0 0 0 0 0.25 0"/>
<feBlend mode="normal" in2="shape" result="effect1_innerShadow_2100_25442"/>
</filter>
<filter id="filter2_i_2100_25442" x="5.68359" y="7.73828" width="286.437" height="108" filterUnits="userSpaceOnUse" color-interpolation-filters="sRGB">
<feFlood flood-opacity="0" result="BackgroundImageFix"/>
<feBlend mode="normal" in="SourceGraphic" in2="BackgroundImageFix" result="shape"/>
<feColorMatrix in="SourceAlpha" type="matrix" values="0 0 0 0 0 0 0 0 0 0 0 0 0 0 0 0 0 0 127 0" result="hardAlpha"/>
<feOffset dy="-9"/>
<feComposite in2="hardAlpha" operator="arithmetic" k2="-1" k3="1"/>
<feColorMatrix type="matrix" values="0 0 0 0 0 0 0 0 0 0 0 0 0 0 0 0 0 0 0.25 0"/>
<feBlend mode="normal" in2="shape" result="effect1_innerShadow_2100_25442"/>
</filter>
</defs>
</svg>
